<svg width="19" height="19" viewBox="0 0 19 19" fill="none" xmlns="http://www.w3.org/2000/svg">
<path d="M5.70527 19C5.18229 19 4.73458 18.814 4.36216 18.4419C3.98973 18.0698 3.80351 17.6225 3.80351 17.1C3.80351 16.5775 3.98973 16.1302 4.36216 15.7581C4.73458 15.386 5.18229 15.2 5.70527 15.2C6.22825 15.2 6.67596 15.386 7.04839 15.7581C7.42081 16.1302 7.60703 16.5775 7.60703 17.1C7.60703 17.6225 7.42081 18.0698 7.04839 18.4419C6.67596 18.814 6.22825 19 5.70527 19ZM15.2141 19C14.6911 19 14.2434 18.814 13.8709 18.4419C13.4985 18.0698 13.3123 17.6225 13.3123 17.1C13.3123 16.5775 13.4985 16.1302 13.8709 15.7581C14.2434 15.386 14.6911 15.2 15.2141 15.2C15.737 15.2 16.1847 15.386 16.5572 15.7581C16.9296 16.1302 17.1158 16.5775 17.1158 17.1C17.1158 17.6225 16.9296 18.0698 16.5572 18.4419C16.1847 18.814 15.737 19 15.2141 19ZM3.72239 1.32938C3.88811 1.67792 4.23959 1.9 4.62552 1.9H18.0191C18.3837 1.9 18.661 2.06229 18.8512 2.38687C19.0413 2.71146 19.0493 3.04 18.8749 3.3725L15.4993 9.4525C15.325 9.76917 15.0912 10.0146 14.798 10.1888C14.5049 10.3629 14.1839 10.45 13.8353 10.45H7.3127C6.96637 10.45 6.64749 10.6385 6.48047 10.9419C6.13192 11.575 6.58996 12.35 7.3127 12.35H16.1658C16.6905 12.35 17.1158 12.7753 17.1158 13.3C17.1158 13.8247 16.6905 14.25 16.1658 14.25H5.70527C4.99211 14.25 4.45328 13.9373 4.08878 13.3119C3.72427 12.6865 3.70843 12.065 4.04123 11.4475L5.07755 9.56852C5.23287 9.2869 5.24326 8.94777 5.10548 8.65717L2.17276 2.47159C2.00726 2.12252 1.65549 1.9 1.26918 1.9H0.950001C0.42533 1.9 0 1.47467 0 0.95C0 0.425329 0.42533 0 0.95 0H2.45853C2.84446 0 3.19594 0.222077 3.36165 0.570619L3.72239 1.32938Z" fill="white"/>
</svg>
