<svg width="34" height="34" viewBox="0 0 34 34" fill="none" xmlns="http://www.w3.org/2000/svg">
<path d="M21.2499 14.1664L15.5833 19.8331L12.7499 16.9997M18.7652 4.89996L20.4949 6.374C20.9307 6.74536 21.4718 6.96987 22.0425 7.01541L24.3078 7.19595C25.6397 7.30224 26.6976 8.35946 26.8039 9.69131L26.984 11.957C27.0295 12.5277 27.2548 13.0696 27.6262 13.5054L29.0996 15.2346C29.9662 16.2515 29.9663 17.7473 29.0997 18.7643L27.6263 20.4937C27.255 20.9295 27.0299 21.4716 26.9844 22.0423L26.8032 24.3076C26.6969 25.6395 25.6406 26.6974 24.3088 26.8036L22.0427 26.9845C21.4719 27.03 20.9303 27.2539 20.4946 27.6253L18.7652 29.0994C17.7483 29.966 16.2516 29.9662 15.2346 29.0995L13.5053 27.6254C13.0695 27.2541 12.5279 27.0297 11.9572 26.9842L9.6911 26.8036C8.35924 26.6974 7.30299 25.6397 7.19671 24.3079L7.01548 22.0425C6.96993 21.4717 6.74491 20.9301 6.37355 20.4944L4.90016 18.7643C4.03355 17.7474 4.03314 16.252 4.89975 15.2351L6.37447 13.5051C6.74583 13.0693 6.96869 12.5277 7.01423 11.957L7.19546 9.69158C7.30175 8.35973 8.36105 7.3021 9.6929 7.19581L11.9565 7.01527C12.5272 6.96973 13.0691 6.7454 13.5049 6.37404L15.2348 4.89996C16.2517 4.03335 17.7483 4.03335 18.7652 4.89996Z" stroke="white" stroke-width="2" stroke-linecap="round" stroke-linejoin="round"/>
</svg>
