<svg width="45" height="45" viewBox="0 0 45 45" fill="none" xmlns="http://www.w3.org/2000/svg">
<path d="M28.125 16.875L20.625 24.375L16.875 20.625M37.5 19.0595C37.5 31.375 28.1849 36.8964 24.2358 38.6839L24.2309 38.686C23.8155 38.874 23.6073 38.9683 23.1354 39.0493C22.8365 39.1006 22.1654 39.1006 21.8665 39.0493C21.3927 38.9679 21.1823 38.8734 20.7637 38.6839C16.8146 36.8964 7.5 31.3749 7.5 19.0594V11.6254C7.5 9.52517 7.5 8.47429 7.90873 7.67212C8.26825 6.96651 8.84151 6.39325 9.54712 6.03373C10.3493 5.625 11.4002 5.625 13.5004 5.625H31.5004C33.6006 5.625 34.6492 5.625 35.4514 6.03373C36.157 6.39325 36.7321 6.96651 37.0917 7.67212C37.5 8.4735 37.5 9.52311 37.5 11.6192V19.0595Z" stroke="white" stroke-width="3.75" stroke-linecap="round" stroke-linejoin="round"/>
</svg>
