<svg width="84" height="53" viewBox="0 0 84 53" fill="none" xmlns="http://www.w3.org/2000/svg">
<g clip-path="url(#clip0_200_476)">
<path d="M17.6532 23.4468C19.3989 23.4468 21.1054 22.9406 22.5569 21.9923C24.0084 21.044 25.1398 19.6961 25.8078 18.1191C26.4759 16.5421 26.6507 14.8068 26.3101 13.1327C25.9695 11.4586 25.1289 9.92079 23.8945 8.71382C22.6601 7.50684 21.0873 6.68487 19.3751 6.35187C17.663 6.01886 15.8882 6.18977 14.2754 6.84299C12.6626 7.4962 11.2841 8.60237 10.3142 10.0216C9.34433 11.4409 8.82666 13.1095 8.82666 14.8164C8.829 17.1046 9.75968 19.2985 11.4145 20.9165C13.0693 22.5345 15.313 23.4445 17.6532 23.4468ZM17.6532 9.06283C18.817 9.06283 19.9547 9.40027 20.9223 10.0325C21.89 10.6647 22.6442 11.5633 23.0896 12.6146C23.535 13.6659 23.6515 14.8228 23.4245 15.9389C23.1974 17.055 22.637 18.0802 21.814 18.8848C20.9911 19.6895 19.9426 20.2374 18.8012 20.4594C17.6597 20.6814 16.4766 20.5675 15.4013 20.132C14.3261 19.6965 13.4071 18.9591 12.7605 18.0129C12.1139 17.0668 11.7688 15.9544 11.7688 14.8164C11.7688 13.2905 12.3888 11.827 13.4923 10.748C14.5958 9.66901 16.0925 9.06283 17.6532 9.06283V9.06283Z" fill="white"/>
<path d="M17.6529 26.3246C14.1426 26.3284 10.7773 27.6935 8.29523 30.1205C5.81313 32.5474 4.41698 35.8379 4.41309 39.2701C4.41309 39.6516 4.56807 40.0175 4.84396 40.2872C5.11984 40.557 5.49402 40.7085 5.88417 40.7085C6.27433 40.7085 6.6485 40.557 6.92439 40.2872C7.20027 40.0175 7.35526 39.6516 7.35526 39.2701C7.35526 36.5997 8.44018 34.0387 10.3714 32.1504C12.3025 30.2622 14.9218 29.2014 17.6529 29.2014C20.384 29.2014 23.0032 30.2622 24.9344 32.1504C26.8655 34.0387 27.9505 36.5997 27.9505 39.2701C27.9505 39.6516 28.1054 40.0175 28.3813 40.2872C28.6572 40.557 29.0314 40.7085 29.4215 40.7085C29.8117 40.7085 30.1859 40.557 30.4618 40.2872C30.7376 40.0175 30.8926 39.6516 30.8926 39.2701C30.8887 35.8379 29.4926 32.5474 27.0105 30.1205C24.5284 27.6935 21.1631 26.3284 17.6529 26.3246V26.3246Z" fill="white"/>
</g>
<g clip-path="url(#clip1_200_476)">
<path d="M66.2528 23.4468C67.9985 23.4468 69.705 22.9406 71.1565 21.9923C72.608 21.044 73.7394 19.6961 74.4074 18.1191C75.0755 16.5421 75.2503 14.8068 74.9097 13.1327C74.5691 11.4586 73.7285 9.92079 72.4941 8.71382C71.2597 7.50684 69.6869 6.68487 67.9748 6.35187C66.2626 6.01886 64.4879 6.18977 62.875 6.84299C61.2622 7.4962 59.8837 8.60237 58.9138 10.0216C57.9439 11.4409 57.4263 13.1095 57.4263 14.8164C57.4286 17.1046 58.3593 19.2985 60.0141 20.9165C61.6689 22.5345 63.9126 23.4445 66.2528 23.4468ZM66.2528 9.06283C67.4166 9.06283 68.5543 9.40027 69.5219 10.0325C70.4896 10.6647 71.2438 11.5633 71.6892 12.6146C72.1346 13.6659 72.2511 14.8228 72.0241 15.9389C71.797 17.055 71.2366 18.0802 70.4136 18.8848C69.5907 19.6895 68.5422 20.2374 67.4008 20.4594C66.2593 20.6814 65.0762 20.5675 64.0009 20.132C62.9257 19.6965 62.0067 18.9591 61.3601 18.0129C60.7136 17.0668 60.3684 15.9544 60.3684 14.8164C60.3684 13.2905 60.9884 11.827 62.0919 10.748C63.1955 9.66901 64.6922 9.06283 66.2528 9.06283V9.06283Z" fill="white"/>
<path d="M66.2525 26.3246C62.7423 26.3284 59.3769 27.6935 56.8948 30.1205C54.4127 32.5474 53.0166 35.8379 53.0127 39.2701C53.0127 39.6516 53.1677 40.0175 53.4436 40.2872C53.7194 40.557 54.0936 40.7085 54.4838 40.7085C54.8739 40.7085 55.2481 40.557 55.524 40.2872C55.7999 40.0175 55.9549 39.6516 55.9549 39.2701C55.9549 36.5997 57.0398 34.0387 58.971 32.1504C60.9021 30.2622 63.5214 29.2014 66.2525 29.2014C68.9836 29.2014 71.6028 30.2622 73.534 32.1504C75.4651 34.0387 76.5501 36.5997 76.5501 39.2701C76.5501 39.6516 76.7051 40.0175 76.9809 40.2872C77.2568 40.557 77.631 40.7085 78.0212 40.7085C78.4113 40.7085 78.7855 40.557 79.0614 40.2872C79.3372 40.0175 79.4922 39.6516 79.4922 39.2701C79.4883 35.8379 78.0922 32.5474 75.6101 30.1205C73.128 27.6935 69.7627 26.3284 66.2525 26.3246V26.3246Z" fill="white"/>
</g>
<path d="M44.5036 14.4068C44.4957 14.4025 44.4879 14.3981 44.4802 14.3936M44.5036 14.4068L44.4802 14.3936M44.5036 14.4068C45.6059 15.0063 46.7574 15.8478 47.9411 16.2627M44.4802 14.3936C44.055 14.1462 43.9012 13.6037 44.1378 13.1687L45.1033 11.3934C45.9143 9.90216 43.3448 8.49504 42.2837 8.21949C41.0404 7.89663 40.7069 8.46565 40.163 9.46565C39.9222 9.90855 39.3679 10.0723 38.925 9.83142L36.4871 8.5056C36.0442 8.26474 35.8805 7.71044 36.1213 7.26754L39.1742 1.65399C39.4151 1.21109 39.9694 1.04731 40.4123 1.28818L42.6109 2.48388C43.137 2.76999 43.235 3.47901 42.9763 4.01913C42.6253 4.75208 42.8569 5.56783 43.4202 6.12978C44.3593 7.06689 44.8469 5.55136 46.7182 5.64336C48.5896 5.73536 50.7354 7.02136 52.7024 8.77929C54.238 10.1516 54.8835 11.1737 55.9424 12.9399C57.5587 15.6358 58.7171 20.4652 58.7519 20.6112C58.753 20.6158 58.7534 20.6169 58.7548 20.6214C58.8402 20.9082 58.3722 21.1157 58.2097 20.8645C57.0825 19.1218 55.3118 16.6784 53.502 15.3517C52.5056 14.6213 51.774 14.247 50.795 13.7146C50.1796 13.3799 49.553 14.6648 49.1725 15.6653C48.9824 16.1653 48.4277 16.4332 47.9411 16.2627M44.4802 14.3936L38.4891 25.4098M47.9411 16.2627L41.9445 27.289M41.9445 27.289L42.165 27.409C42.6079 27.6498 42.7717 28.2041 42.5308 28.647L32.9511 46.2618C32.7103 46.7047 32.156 46.8685 31.7131 46.6276L27.8166 44.5085C27.3737 44.2677 27.2099 43.7133 27.4508 43.2705L37.0305 25.6557C37.2714 25.2128 37.8257 25.049 38.2685 25.2899L38.4891 25.4098M41.9445 27.289C41.9445 27.289 40.7601 26.9754 40.0781 26.6045C39.396 26.2336 38.4891 25.4098 38.4891 25.4098" stroke="white" stroke-width="2.35374" stroke-linecap="round" stroke-linejoin="round"/>
<defs>
<clipPath id="clip0_200_476">
<rect width="35.3061" height="34.5215" fill="white" transform="translate(0 6.18616)"/>
</clipPath>
<clipPath id="clip1_200_476">
<rect width="35.3061" height="34.5215" fill="white" transform="translate(48.5996 6.18616)"/>
</clipPath>
</defs>
</svg>
