<svg width="174" height="174" viewBox="0 0 174 174" fill="none" xmlns="http://www.w3.org/2000/svg">
<circle cx="87" cy="87" r="83.5" stroke="white" stroke-width="7"/>
<path d="M56 83.0479V103.664C56 107.982 56 110.143 56.8447 111.792C57.5877 113.243 58.7725 114.421 60.2307 115.16C61.8869 116 64.0561 116 68.388 116H105.612C109.944 116 112.11 116 113.766 115.16C115.224 114.421 116.413 113.243 117.156 111.792C118 110.145 118 107.987 118 103.678V83.0479C118 80.9881 117.998 79.9575 117.746 78.999C117.523 78.1496 117.157 77.3458 116.661 76.6194C116.102 75.7997 115.325 75.12 113.766 73.7635L95.1663 57.5725C92.2731 55.0541 90.8266 53.7955 89.1986 53.3165C87.7641 52.8945 86.2351 52.8945 84.8006 53.3165C83.1739 53.7951 81.7294 55.0525 78.8407 57.5671L60.2345 73.7635C58.6762 75.12 57.8989 75.7997 57.3396 76.6194C56.8439 77.3458 56.4749 78.1496 56.2518 78.999C56 79.9576 56 80.988 56 83.0479Z" stroke="white" stroke-width="5" stroke-linecap="round" stroke-linejoin="round"/>
<path d="M99.3728 84.7562L98.8082 84.4421C98.7206 84.3933 98.6775 84.3689 98.6351 84.3435C98.2141 84.0913 97.8592 83.7429 97.6003 83.326C97.5742 83.284 97.5497 83.24 97.4995 83.1531C97.4493 83.0663 97.4239 83.0223 97.4006 82.9787C97.1683 82.545 97.0426 82.0617 97.0351 81.5698C97.0344 81.5203 97.0345 81.4698 97.0362 81.3693L97.0473 80.7137C97.0649 79.6646 97.0738 79.1384 96.9263 78.6661C96.7954 78.2467 96.5763 77.8603 96.2837 77.5324C95.953 77.1618 95.4952 76.8974 94.5787 76.3693L93.8174 75.9306C92.9034 75.4039 92.4463 75.1405 91.9611 75.04C91.5318 74.9512 91.0888 74.9553 90.6611 75.0513C90.1783 75.1597 89.7269 75.43 88.8246 75.9703L88.8195 75.9727L88.274 76.2993C88.1878 76.351 88.1441 76.377 88.1009 76.4011C87.6719 76.6396 87.1929 76.7715 86.7023 76.7872C86.6529 76.7888 86.6026 76.7888 86.502 76.7888C86.4021 76.7888 86.3496 76.7888 86.3003 76.7872C85.8086 76.7714 85.3287 76.6388 84.899 76.3993C84.8557 76.3751 84.8129 76.3489 84.7264 76.297L84.1775 75.9675C83.269 75.4221 82.8141 75.149 82.3287 75.04C81.8992 74.9437 81.4547 74.941 81.0239 75.031C80.5374 75.1326 80.0801 75.398 79.1656 75.9288L79.1616 75.9306L78.4098 76.3669L78.4014 76.372C77.4952 76.898 77.041 77.1616 76.713 77.5307C76.422 77.8583 76.2045 78.244 76.0743 78.6624C75.9272 79.1352 75.935 79.6626 75.9527 80.7167L75.9638 81.3713C75.9654 81.4705 75.9683 81.5197 75.9676 81.5685C75.9603 82.0614 75.833 82.5458 75.6 82.9802C75.577 83.0232 75.5522 83.0662 75.5026 83.152C75.453 83.2379 75.4289 83.2806 75.4032 83.322C75.1431 83.7411 74.7866 84.0916 74.363 84.3442C74.3211 84.3692 74.2769 84.3933 74.1901 84.4413L73.6327 84.7502C72.7053 85.2642 72.2417 85.5214 71.9044 85.8874C71.6059 86.2112 71.3805 86.5953 71.2429 87.0136C71.0873 87.4864 71.0875 88.0166 71.0899 89.0769L71.0918 89.9435C71.0942 90.9967 71.0975 91.523 71.2534 91.9926C71.3913 92.4081 71.6151 92.7899 71.9119 93.1117C72.2473 93.4755 72.7063 93.7311 73.6267 94.2431L74.1791 94.5505C74.2731 94.6028 74.3205 94.6286 74.3658 94.6559C74.7856 94.9087 75.1393 95.2582 75.3972 95.6749C75.4251 95.7199 75.4518 95.7666 75.5053 95.8601C75.5581 95.9524 75.5851 95.9985 75.6096 96.0448C75.8357 96.4729 75.9568 96.9485 75.965 97.4326C75.9659 97.4849 75.9651 97.5378 75.9633 97.6441L75.9527 98.2724C75.9349 99.3301 75.9271 99.8596 76.0751 100.334C76.2061 100.753 76.425 101.14 76.7175 101.467C77.0483 101.838 77.5068 102.102 78.4233 102.63L79.1844 103.069C80.0984 103.596 80.5553 103.859 81.0405 103.959C81.4698 104.048 81.913 104.045 82.3407 103.949C82.8242 103.84 83.2771 103.569 84.182 103.027L84.7275 102.7C84.8138 102.649 84.8575 102.623 84.9007 102.599C85.3297 102.36 85.8082 102.228 86.2988 102.212C86.3482 102.21 86.3985 102.21 86.4991 102.21C86.5999 102.21 86.6501 102.21 86.6997 102.212C87.1914 102.228 87.6727 102.361 88.1024 102.6C88.1402 102.621 88.1781 102.644 88.2446 102.684L88.8245 103.032C89.7331 103.578 90.187 103.85 90.6725 103.959C91.1019 104.055 91.5468 104.059 91.9776 103.969C92.464 103.868 92.9221 103.602 93.8361 103.071L94.5992 102.628C95.5061 102.102 95.9608 101.838 96.2888 101.469C96.5798 101.141 96.7976 100.756 96.9278 100.337C97.0739 99.868 97.0651 99.3447 97.0476 98.3059L97.0362 97.6283C97.0346 97.5292 97.0344 97.4799 97.0351 97.4311C97.0424 96.9382 97.1676 96.4535 97.4006 96.019C97.4236 95.9761 97.4486 95.9328 97.498 95.8473C97.5476 95.7614 97.5733 95.7186 97.599 95.6771C97.8591 95.258 98.216 94.9073 98.6396 94.6546C98.681 94.63 98.7236 94.6063 98.8084 94.5594L98.8113 94.558L99.3687 94.2491C100.296 93.7352 100.761 93.4777 101.098 93.1117C101.396 92.7879 101.621 92.4044 101.759 91.9861C101.914 91.5161 101.913 90.9889 101.91 89.941L101.908 89.0558C101.906 88.0026 101.904 87.4764 101.749 87.0068C101.611 86.5913 101.386 86.2095 101.089 85.8876C100.754 85.5242 100.294 85.2685 99.3755 84.7575L99.3728 84.7562Z" stroke="white" stroke-width="3.08333" stroke-linecap="round" stroke-linejoin="round"/>
<path d="M80.3338 89.4999C80.3338 92.9057 83.0948 95.6666 86.5005 95.6666C89.9063 95.6666 92.6672 92.9057 92.6672 89.4999C92.6672 86.0942 89.9063 83.3333 86.5005 83.3333C83.0948 83.3333 80.3338 86.0942 80.3338 89.4999Z" stroke="white" stroke-width="3.08333" stroke-linecap="round" stroke-linejoin="round"/>
</svg>
