<svg width="174" height="174" viewBox="0 0 174 174" fill="none" xmlns="http://www.w3.org/2000/svg">
<circle cx="87" cy="87" r="83.5" stroke="white" stroke-width="7"/>
<path d="M92.313 66.3228C92.2977 66.3145 92.2826 66.306 92.2677 66.2973M92.313 66.3228L92.2677 66.2973M92.313 66.3228C94.4536 67.4869 96.6898 69.1213 98.9885 69.9269M92.2677 66.2973C91.4419 65.8168 91.1432 64.7633 91.6026 63.9185L93.4776 60.4709C95.0525 57.575 90.0627 54.8424 88.002 54.3073C85.5876 53.6803 84.94 54.7853 83.8838 56.7273C83.4161 57.5874 82.3397 57.9054 81.4796 57.4376L76.7454 54.8629C75.8853 54.3952 75.5672 53.3187 76.035 52.4586L81.9636 41.5573C82.4314 40.6972 83.5078 40.3792 84.3679 40.8469L88.6375 43.1689C89.6591 43.7246 89.8494 45.1015 89.3471 46.1504C88.6655 47.5737 89.1153 49.1579 90.209 50.2492C92.0329 52.069 92.9797 49.1259 96.6138 49.3045C100.248 49.4832 104.415 51.9806 108.235 55.3944C111.217 58.0593 112.47 60.0442 114.527 63.4742C117.666 68.7096 119.915 78.0879 119.983 78.3716C119.985 78.3806 119.986 78.3826 119.988 78.3914C120.154 78.9483 119.245 79.3513 118.93 78.8634C116.741 75.4791 113.302 70.7342 109.788 68.1579C107.853 66.7394 106.432 66.0124 104.531 64.9785C103.336 64.3286 102.119 66.8239 101.38 68.7669C101.011 69.7377 99.9336 70.2581 98.9885 69.9269M92.2677 66.2973L80.6332 87.6903M98.9885 69.9269L87.3433 91.3396M87.3433 91.3396L87.7716 91.5725C88.6317 92.0403 88.9498 93.1167 88.482 93.9768L69.8786 128.184C69.4108 129.044 68.3344 129.362 67.4743 128.894L59.9075 124.779C59.0474 124.311 58.7294 123.235 59.1971 122.375L77.8005 88.1677C78.2683 87.3076 79.3447 86.9896 80.2048 87.4574L80.6332 87.6903M87.3433 91.3396C87.3433 91.3396 85.0433 90.7306 83.7188 90.0104C82.3944 89.2901 80.6332 87.6903 80.6332 87.6903" stroke="white" stroke-width="4.57087" stroke-linecap="round" stroke-linejoin="round"/>
</svg>
