<svg width="27" height="27" viewBox="0 0 27 27" fill="black" xmlns="http://www.w3.org/2000/svg">
<path d="M23.625 4.5C24.2463 4.5 24.75 5.00368 24.75 5.625V19.125C24.75 20.989 23.239 22.5 21.375 22.5H5.625C3.76104 22.5 2.25 20.989 2.25 19.125V5.625C2.25 5.00368 2.75368 4.5 3.375 4.5H23.625ZM7.875 14.625C7.25368 14.625 6.75 15.1287 6.75 15.75C6.75 16.3713 7.25368 16.875 7.875 16.875H11.25C11.8713 16.875 12.375 16.3713 12.375 15.75C12.375 15.1287 11.8713 14.625 11.25 14.625H7.875ZM7.875 10.125C7.25368 10.125 6.75 10.6287 6.75 11.25C6.75 11.8713 7.25368 12.375 7.875 12.375H19.125C19.7463 12.375 20.25 11.8713 20.25 11.25C20.25 10.6287 19.7463 10.125 19.125 10.125H7.875Z" fill="#666666"/>
</svg>
