<?xml version="1.0" encoding="UTF-8"?>
<svg id="Ebene_1" xmlns="http://www.w3.org/2000/svg" version="1.1" viewBox="0 0 37 37">
  <!-- Generator: Adobe Illustrator 30.1.0, SVG Export Plug-In . SVG Version: 2.1.1 Build 136)  -->
  <defs>
    <style>
      .st0 {
        fill: #fff;
      }
    </style>
  </defs>
  <path class="st0" d="M15.8,20.1h-3.4c-.6,0-1.1.5-1.1,1.1s.5,1.1,1.1,1.1h3.4c.6,0,1.1-.5,1.1-1.1s-.5-1.1-1.1-1.1Z"/>
  <path class="st0" d="M23.6,15.6h-11.2c-.6,0-1.1.5-1.1,1.1s.5,1.1,1.1,1.1h11.2c.6,0,1.1-.5,1.1-1.1s-.5-1.1-1.1-1.1Z"/>
  <path class="st0" d="M18.5,0C8.3,0,0,8.3,0,18.5s8.3,18.5,18.5,18.5,18.5-8.3,18.5-18.5S28.7,0,18.5,0ZM29.2,24.6c0,1.9-1.5,3.4-3.4,3.4h-15.8c-1.9,0-3.4-1.5-3.4-3.4v-13.5c0-.6.5-1.1,1.1-1.1h20.2c.6,0,1.1.5,1.1,1.1v13.5Z"/>
</svg>