<svg width="37" height="37" viewBox="0 0 37 37" fill="none" xmlns="http://www.w3.org/2000/svg">
<g clip-path="url(#clip0_135_419)">
<path d="M18.5 0C8.28282 0 0 8.28282 0 18.5C0 27.1758 5.97328 34.4559 14.0311 36.4554V24.1536H10.2164V18.5H14.0311V16.0639C14.0311 9.76726 16.8809 6.8487 23.0628 6.8487C24.235 6.8487 26.2574 7.07884 27.0847 7.30824V12.4327C26.6481 12.3869 25.8896 12.3639 24.9476 12.3639C21.9144 12.3639 20.7422 13.5131 20.7422 16.5005V18.5H26.785L25.7468 24.1536H20.7422V36.8646C29.9027 35.7583 37.0007 27.9587 37.0007 18.5C37 8.28282 28.7172 0 18.5 0Z" fill="white"/>
</g>
<defs>
<clipPath id="clip0_135_419">
<rect width="37" height="37" fill="white"/>
</clipPath>
</defs>
</svg>
