<svg width="37" height="37" viewBox="0 0 37 37" fill="none" xmlns="http://www.w3.org/2000/svg">
<path d="M36.6314 11.1C36.6314 11.1 36.2701 8.54905 35.1572 7.42893C33.748 5.95471 32.1727 5.94749 31.45 5.86077C26.2758 5.48499 18.5072 5.48499 18.5072 5.48499H18.4928C18.4928 5.48499 10.7242 5.48499 5.55 5.86077C4.82734 5.94749 3.25195 5.95471 1.84277 7.42893C0.729883 8.54905 0.375781 11.1 0.375781 11.1C0.375781 11.1 0 14.099 0 17.0908V19.8947C0 22.8865 0.368555 25.8856 0.368555 25.8856C0.368555 25.8856 0.729883 28.4365 1.83555 29.5567C3.24473 31.0309 5.09473 30.9803 5.91855 31.1393C8.88145 31.4211 18.5 31.5078 18.5 31.5078C18.5 31.5078 26.2758 31.4934 31.45 31.1248C32.1727 31.0381 33.748 31.0309 35.1572 29.5567C36.2701 28.4365 36.6314 25.8856 36.6314 25.8856C36.6314 25.8856 37 22.8938 37 19.8947V17.0908C37 14.099 36.6314 11.1 36.6314 11.1ZM14.6771 23.2985V12.8994L24.6715 18.117L14.6771 23.2985Z" fill="white"/>
</svg>
